<?xml version="1.0" standalone="no"?><!DOCTYPE svg PUBLIC "-//W3C//DTD SVG 1.1//EN" "http://www.w3.org/Graphics/SVG/1.1/DTD/svg11.dtd"><svg t="1656336811981" class="icon" viewBox="0 0 1024 1024" version="1.1" xmlns="http://www.w3.org/2000/svg" p-id="9079" xmlns:xlink="http://www.w3.org/1999/xlink" width="128" height="128"><defs><style type="text/css">@font-face { font-family: feedback-iconfont; src: url("//at.alicdn.com/t/font_1031158_u69w8yhxdu.woff2?t=1630033759944") format("woff2"), url("//at.alicdn.com/t/font_1031158_u69w8yhxdu.woff?t=1630033759944") format("woff"), url("//at.alicdn.com/t/font_1031158_u69w8yhxdu.ttf?t=1630033759944") format("truetype"); }
</style></defs><path d="M499.2 1021.44c-104.96 0-207.872-32.256-293.888-93.184-9.216-6.656-14.336-16.384-15.36-27.136-0.512-10.24 3.072-20.48 10.752-28.16 12.288-12.288 32.256-13.824 46.592-3.584 27.136 19.456 56.832 35.328 87.552 48.128 52.224 21.504 107.52 32.256 164.352 32.256 56.32 0 111.616-10.752 164.352-32.256 53.248-21.504 101.888-53.76 144.384-95.744 41.472-40.96 73.728-89.6 95.744-143.872 21.504-52.224 32.256-107.52 32.256-164.352 0-56.32-10.752-111.616-32.256-164.352-21.504-53.248-53.76-101.888-95.744-144.384-41.984-41.984-90.112-74.24-143.872-95.744-52.224-21.504-107.52-32.256-164.352-32.256-55.808-1.024-111.104 9.216-164.352 30.72-32.256 13.312-61.44 29.184-87.552 48.128-14.848 10.24-34.304 8.704-46.592-3.584-7.68-7.68-11.264-17.92-10.24-28.672 1.024-10.752 6.144-19.968 14.848-26.112C304.128 28.16 424.96-4.096 545.792 6.656c122.88 11.264 237.056 66.56 322.048 156.16 89.6 94.208 139.264 218.624 139.264 350.208 0 131.584-49.664 255.488-139.264 350.208a507.02336 507.02336 0 0 1-322.048 156.16c-15.36 1.024-31.232 2.048-46.592 2.048z" p-id="9080" fill="#0055cc"></path><path d="M485.376 695.808c-9.728 0-18.944-3.584-25.6-10.752-6.656-6.656-10.752-15.872-10.752-25.6s3.584-18.944 10.752-25.6l84.48-84.48H54.272c-19.968 0-36.352-16.384-36.352-36.352 0-19.968 16.384-36.352 36.352-36.352h489.984L459.776 392.192c-6.656-6.656-10.752-15.872-10.752-25.6s3.584-18.944 10.752-25.6c14.336-14.336 37.376-14.336 51.2 0l146.432 146.432c6.656 6.656 10.752 15.872 10.752 25.6s-3.584 18.944-10.752 25.6l-146.432 146.432c-7.168 6.656-15.872 10.752-25.6 10.752z" p-id="9081" fill="#0055cc"></path></svg>