<?xml version="1.0" standalone="no"?><!DOCTYPE svg PUBLIC "-//W3C//DTD SVG 1.1//EN" "http://www.w3.org/Graphics/SVG/1.1/DTD/svg11.dtd"><svg t="1656492263697" class="icon" viewBox="0 0 1024 1024" version="1.1" xmlns="http://www.w3.org/2000/svg" p-id="2213" xmlns:xlink="http://www.w3.org/1999/xlink" width="128" height="128"><defs><style type="text/css">@font-face { font-family: feedback-iconfont; src: url("//at.alicdn.com/t/font_1031158_u69w8yhxdu.woff2?t=1630033759944") format("woff2"), url("//at.alicdn.com/t/font_1031158_u69w8yhxdu.woff?t=1630033759944") format("woff"), url("//at.alicdn.com/t/font_1031158_u69w8yhxdu.ttf?t=1630033759944") format("truetype"); }
</style></defs><path d="M512 1024C229.677176 1024 0 794.322824 0 512 0 229.677176 229.677176 0 512 0 794.322824 0 1024 229.677176 1024 512c0 282.322824-229.677176 512-512 512z m0-963.764706C262.866824 60.235294 60.235294 262.866824 60.235294 512 60.235294 761.072941 262.866824 963.764706 512 963.764706S963.764706 761.072941 963.764706 512C963.764706 262.866824 761.133176 60.235294 512 60.235294z m-34.876235 634.157177a31.744 31.744 0 0 1-22.648471 9.577411h-0.180706a32.225882 32.225882 0 0 1-22.64847-9.33647l-166.249412-166.249412a31.924706 31.924706 0 1 1 45.236706-45.236706l143.420235 143.36 259.072-264.854588a31.924706 31.924706 0 1 1 45.718588 44.694588l-281.72047 288.045177z" p-id="2214" fill="#0055cc"></path></svg>