<?xml version="1.0" standalone="no"?><!DOCTYPE svg PUBLIC "-//W3C//DTD SVG 1.1//EN" "http://www.w3.org/Graphics/SVG/1.1/DTD/svg11.dtd"><svg t="1656513609412" class="icon" viewBox="0 0 1024 1024" version="1.1" xmlns="http://www.w3.org/2000/svg" p-id="5056" xmlns:xlink="http://www.w3.org/1999/xlink" width="128" height="128"><defs><style type="text/css">@font-face { font-family: feedback-iconfont; src: url("//at.alicdn.com/t/font_1031158_u69w8yhxdu.woff2?t=1630033759944") format("woff2"), url("//at.alicdn.com/t/font_1031158_u69w8yhxdu.woff?t=1630033759944") format("woff"), url("//at.alicdn.com/t/font_1031158_u69w8yhxdu.ttf?t=1630033759944") format("truetype"); }
</style></defs><path d="M741.3 320.4l-225.9 226-120.1-120.2c-13-13-34-13-47 0-6.3 6.3-9.7 14.6-9.7 23.5s3.5 17.2 9.7 23.5L486 610.9c8.1 8.1 18.8 12.2 29.4 12.2 10.7 0 21.3-4.1 29.4-12.2l243.5-243.5c6.3-6.3 9.7-14.6 9.7-23.5s-3.5-17.2-9.7-23.5c-13-12.9-34-12.9-47 0zM603.6 885.3H166c-15 0-27.3-12.2-27.3-27.3V400.6c0-20.5-16.7-37.3-37.3-37.3-20.5 0-37.3 16.7-37.3 37.3V858c0 56.1 45.6 101.8 101.8 101.8h437.6c20.5 0 37.3-16.7 37.3-37.3s-16.7-37.2-37.2-37.2z" fill="#ffffff" p-id="5057"></path><path d="M923.1 210.5c20.5 0 37.3-16.7 37.3-37.3v-6.6c0-6.9-0.8-14-2.3-21.1-0.3-1.3-0.7-2.4-1-3.4l-0.6-1.8c-1.2-4.5-2.7-9.6-4.8-14.5-0.7-1.7-1.6-3.2-2.4-4.6-0.4-0.7-0.8-1.4-1.2-2.2l-0.3-0.5c-1.9-3.5-3.8-7.1-6.2-10.5-1.3-1.9-2.8-3.5-4.1-5.1-0.5-0.6-1-1.1-1.5-1.7-2.7-3.2-5.1-6-7.9-8.6-0.1-0.1-0.3-0.4-0.5-0.6-0.4-0.5-0.9-1.1-1.6-1.7-1.4-1.2-2.8-2.2-4.1-3.1l-2.1-1.5c-0.4-0.3-0.9-0.7-1.3-1-1.5-1.2-3.1-2.4-4.9-3.6-3.3-2.1-6.7-3.8-10.1-5.5l-1.8-0.9c-1.6-0.8-3.2-1.7-5-2.4-3.9-1.6-7.8-2.6-11.6-3.6-0.7-0.2-1.5-0.4-2.2-0.6-1.4-0.4-2.9-0.9-4.6-1.2-6.7-1.3-13.2-2-19.4-2H278c-6.2 0-12.7 0.7-19.4 2-1.7 0.3-3.2 0.8-4.6 1.2-0.7 0.2-1.4 0.4-2.2 0.6-3.8 1-7.8 2.1-11.7 3.6-1.8 0.7-3.5 1.6-5 2.4l-1.8 0.9c-3.5 1.7-6.8 3.4-10.1 5.5-1.8 1.1-3.4 2.4-4.9 3.6-0.4 0.3-0.9 0.7-1.3 1l-2.1 1.5c-1.4 0.9-2.8 1.9-4.1 3.1-0.7 0.6-1.2 1.2-1.6 1.7-0.2 0.2-0.4 0.5-0.5 0.6-2.8 2.6-5.3 5.5-7.9 8.6-0.5 0.6-1 1.2-1.5 1.7-1.4 1.6-2.8 3.2-4.1 5.1-2.4 3.4-4.3 7-6.2 10.5l-0.3 0.5c-0.4 0.7-0.8 1.4-1.2 2.2-0.8 1.4-1.7 2.9-2.4 4.6-2.2 4.9-3.6 10.1-4.8 14.6-0.1 0.5-0.4 1.1-0.6 1.8-0.3 1-0.7 2.1-1 3.4-1.5 7.1-2.3 14.2-2.3 21.1v580.6c0 56.1 45.6 101.8 101.8 101.8h580.6c56.1 0 101.8-45.7 101.8-101.8V329.1c0-20.5-16.7-37.3-37.3-37.3S886 308.5 886 329.1v418.1c0 15-12.2 27.3-27.3 27.3H278c-15 0-27.3-12.2-27.3-27.3V166.6c0-1.8 0.2-3.7 0.6-5.6 0-0.1 0.1-0.3 0.1-0.4 0.1-0.3 0.2-0.7 0.3-1.1 0.4-1.3 0.7-2.7 1.3-3.9 0.1-0.2 0.2-0.5 0.4-0.8s0.4-0.6 0.5-0.9c0.6-1.2 1.2-2.2 1.8-3.1 0.2-0.2 0.4-0.5 0.7-0.9 0.2-0.2 0.4-0.5 0.6-0.7 0.9-1.1 1.6-1.9 2.4-2.7 0.1-0.1 0.3-0.2 0.4-0.4 0.2-0.2 0.4-0.3 0.6-0.5 2.4-2 4.9-3.5 7.5-4.6l0.2-0.1c0.3-0.1 0.5-0.1 0.8-0.2 3.1-1.1 6.2-1.7 9-1.7h580.6c2.8 0 5.9 0.6 9 1.7 0.3 0.1 0.5 0.2 0.8 0.2h0.1c2.6 1 5.2 2.6 7.5 4.6 0.2 0.2 0.4 0.3 0.6 0.5 0.1 0.1 0.3 0.2 0.4 0.4 0.8 0.7 1.6 1.6 2.4 2.7 0.2 0.2 0.4 0.5 0.6 0.7 0.3 0.3 0.5 0.6 0.7 0.8 0.7 0.9 1.2 2 1.8 3.1 0.2 0.3 0.3 0.6 0.5 0.9 0.2 0.3 0.3 0.6 0.4 0.7 0.5 1.2 0.9 2.6 1.3 3.9 0.1 0.4 0.2 0.7 0.3 1 0 0.1 0.1 0.2 0.1 0.4 0.4 1.9 0.6 3.8 0.6 5.6v6.6c0.2 21 16.9 37.7 37.5 37.7z" fill="#ffffff" p-id="5058"></path></svg>