<svg version="1.1" xmlns="http://www.w3.org/2000/svg" xmlns:xlink="http://www.w3.org/1999/xlink" width="112.025" height="112.025" viewBox="0,0,112.025,112.025"><g transform="translate(-183.9875,-123.9875)"><g data-paper-data="{&quot;isPaintingLayer&quot;:true}" fill="#ffffff" fill-rule="nonzero" stroke="none" stroke-linecap="butt" stroke-linejoin="miter" stroke-miterlimit="10" stroke-dasharray="" stroke-dashoffset="0" style="mix-blend-mode: normal"><path d="M240,131.4875c-6.55,0 -12.9,1.2875 -18.875,3.8125c-5.775,2.4375 -10.9625,5.9375 -15.425,10.4c-4.4625,4.4625 -7.9625,9.65 -10.4,15.425c-2.5375,5.975 -3.8125,12.3125 -3.8125,18.875c0,6.5625 1.2875,12.9125 3.8125,18.8875c2.4375,5.775 5.9375,10.9625 10.4,15.425c4.4625,4.4625 9.65,7.9625 15.425,10.4c5.975,2.5375 12.3125,3.825 18.875,3.825c6.5625,0 12.9125,-1.2875 18.8875,-3.8125c5.775,-2.4375 10.9625,-5.9375 15.425,-10.4c4.4625,-4.4625 7.9625,-9.65 10.4,-15.425c2.525,-5.9875 3.8125,-12.325 3.8125,-18.8875c0,-6.5625 -1.2875,-12.9125 -3.8125,-18.8875c-2.4375,-5.775 -5.9375,-10.9625 -10.4,-15.425c-4.4625,-4.4625 -9.65,-7.9625 -15.425,-10.4c-5.9875,-2.525 -12.3375,-3.8125 -18.8875,-3.8125M296.0125,180c0,30.9375 -25.075,56.0125 -56.0125,56.0125c-30.9375,0 -56.0125,-25.075 -56.0125,-56.0125c0,-30.9375 25.075,-56.0125 56.0125,-56.0125c30.9375,0 56.0125,25.075 56.0125,56.0125z" stroke-width="1"/><path d="M242.35197,207.32462l-6.25716,-26.01069c-0.57447,-2.38805 0.6878,-4.72991 2.82679,-5.24447c2.13898,-0.51456 4.32824,0.99701 4.90271,3.38505l6.25717,26.01069c0.57447,2.38805 -0.6878,4.72992 -2.82678,5.24448c-2.13898,0.51456 -4.32825,-0.99701 -4.90272,-3.38506z" stroke-width="1"/><path d="M236.8697,177.34473l16.08413,-21.37777c1.47669,-1.96269 4.08648,-2.47908 5.84447,-1.15641c1.75799,1.32268 1.98495,3.97337 0.50827,5.93606l-16.08413,21.37777c-1.47669,1.96269 -4.08649,2.47908 -5.84448,1.15641c-1.75799,-1.32268 -1.98495,-3.97337 -0.50826,-5.93607z" stroke-width="1"/><path d="M265.06035,143.37634l-1.98625,-14.28273l16.62615,11.73454z" stroke-width="0"/><path d="M251.50568,222.68217l12.26239,7.58785l-19.64565,5.30817z" stroke-width="0"/></g></g></svg>