<svg version="1.1" xmlns="http://www.w3.org/2000/svg" xmlns:xlink="http://www.w3.org/1999/xlink" width="130" height="120" viewBox="0,0,125,120"><g transform="translate(-177.32927,-123.91186)"><g data-paper-data="{&quot;isPaintingLayer&quot;:true}" fill-rule="nonzero" stroke="none" stroke-linecap="butt" stroke-linejoin="miter" stroke-miterlimit="10" stroke-dasharray="" stroke-dashoffset="0" style="mix-blend-mode: normal"><path d="M233.18918,131.93495c-6.53215,0 -12.86486,1.3773 -18.82358,4.07841c-5.75927,2.60751 -10.93264,6.35162 -15.38298,11.12535c-4.45034,4.77373 -7.94081,10.32304 -10.37167,16.50082c-2.53059,6.39173 -3.80211,13.17123 -3.80211,20.19143c0,7.0202 1.28399,13.81309 3.80211,20.20481c2.43086,6.17777 5.92132,11.72708 10.37167,16.50081c4.45034,4.77373 9.62371,8.51784 15.38298,11.12535c5.95872,2.71448 12.27896,4.09178 18.82358,4.09178c6.54462,0 12.87732,-1.3773 18.83605,-4.0784c5.75927,-2.60751 10.93263,-6.35162 15.38298,-11.12535c4.45035,-4.77373 7.94081,-10.32304 10.37167,-16.50081c2.51812,-6.4051 3.80211,-13.18461 3.80211,-20.20481c0,-7.0202 -1.28399,-13.81308 -3.80211,-20.2048c-2.43086,-6.17777 -5.92132,-11.72708 -10.37167,-16.50082c-4.45035,-4.77373 -9.62371,-8.51784 -15.38298,-11.12535c-5.97119,-2.70111 -12.30389,-4.07841 -18.83605,-4.07841M289.04909,183.83096c0,33.09524 -25.00669,59.91909 -55.8599,59.91909c-30.85322,0 -55.85991,-26.82386 -55.85991,-59.91909c0,-33.09524 25.00669,-59.91909 55.85991,-59.91909c30.85322,0 55.85991,26.82385 55.85991,59.91909z" fill="#ffffff" stroke-width="1"/><path d="M206.77498,174.53638l26.23841,5.18447c2.40895,0.476 4.03186,2.7274 3.63439,5.0419c-0.39747,2.3145 -2.66173,3.79785 -5.07068,3.32186l-26.23839,-5.18448c-2.40895,-0.476 -4.03187,-2.7274 -3.6344,-5.0419c0.39747,-2.3145 2.66173,-3.79785 5.07068,-3.32185z" fill="#ffffff" stroke-width="1"/><path d="M230.06741,180.9905l16.04031,-22.86876c1.47267,-2.09958 4.07534,-2.65198 5.82854,-1.23706c1.7532,1.41493 1.97954,4.25049 0.50689,6.35007l-16.04031,22.86876c-1.47267,2.09958 -4.07536,2.65198 -5.82856,1.23707c-1.7532,-1.41493 -1.97954,-4.25049 -0.50687,-6.35008z" fill="#ffffff" stroke-width="1"/><path d="M235.4708,243.91187v-31.4631h66.85848v31.4631z" fill="#ffffff" stroke-width="0"/><text transform="translate(240.33146,235.7335) scale(0.49864,0.53487)" font-size="40" xml:space="preserve" fill="#0055cc" fill-rule="nonzero" stroke="none" stroke-width="1" stroke-linecap="butt" stroke-linejoin="miter" stroke-miterlimit="10" stroke-dasharray="" stroke-dashoffset="0" font-family="Microsoft YaHei UI" font-weight="normal" text-anchor="start" style="mix-blend-mode: normal"><tspan x="0" dy="0">RAND</tspan></text></g></g></svg>