<svg version="1.1" xmlns="http://www.w3.org/2000/svg" xmlns:xlink="http://www.w3.org/1999/xlink" width="112.025" height="112.025" viewBox="0,0,112.025,112.025"><g transform="translate(-184.08041,-123.98865)"><g data-paper-data="{&quot;isPaintingLayer&quot;:true}" fill="#0055cc" fill-rule="nonzero" stroke="none" stroke-width="1" stroke-linecap="butt" stroke-linejoin="miter" stroke-miterlimit="10" stroke-dasharray="" stroke-dashoffset="0" style="mix-blend-mode: normal"><path d="M240.09291,131.48865c-6.55,0 -12.9,1.2875 -18.875,3.8125c-5.775,2.4375 -10.9625,5.9375 -15.425,10.4c-4.4625,4.4625 -7.9625,9.65 -10.4,15.425c-2.5375,5.975 -3.8125,12.3125 -3.8125,18.875c0,6.5625 1.2875,12.9125 3.8125,18.8875c2.4375,5.775 5.9375,10.9625 10.4,15.425c4.4625,4.4625 9.65,7.9625 15.425,10.4c5.975,2.5375 12.3125,3.825 18.875,3.825c6.5625,0 12.9125,-1.2875 18.8875,-3.8125c5.775,-2.4375 10.9625,-5.9375 15.425,-10.4c4.4625,-4.4625 7.9625,-9.65 10.4,-15.425c2.525,-5.9875 3.8125,-12.325 3.8125,-18.8875c0,-6.5625 -1.2875,-12.9125 -3.8125,-18.8875c-2.4375,-5.775 -5.9375,-10.9625 -10.4,-15.425c-4.4625,-4.4625 -9.65,-7.9625 -15.425,-10.4c-5.9875,-2.525 -12.3375,-3.8125 -18.8875,-3.8125M296.10541,180.00115c0,30.9375 -25.075,56.0125 -56.0125,56.0125c-30.9375,0 -56.0125,-25.075 -56.0125,-56.0125c0,-30.9375 25.075,-56.0125 56.0125,-56.0125c30.9375,0 56.0125,25.075 56.0125,56.0125z"/><path d="M243.85897,152.319v26.75273c0,2.45617 -1.775,4.43785 -3.975,4.43785c-2.2,0 -3.975,-1.98168 -3.975,-4.43785v-26.75272c0,-2.45617 1.775,-4.43786 3.975,-4.43786c2.2,0 3.975,1.98169 3.975,4.43786z"/></g></g></svg>